Coordinates
version=1
nRows=9
nColumns=24
inDegrees=yes

Units are S.I. units (second, meters, Newtons, ...)
Angles are in degrees.

endheader
time	pelvis_tilt	pelvis_list	pelvis_rotation	pelvis_tx	pelvis_ty	pelvis_tz	hip_flexion_r	hip_adduction_r	hip_rotation_r	knee_angle_r	ankle_angle_r	subtalar_angle_r	mtp_angle_r	hip_flexion_l	hip_adduction_l	hip_rotation_l	knee_angle_l	ankle_angle_l	subtalar_angle_l	mtp_angle_l	lumbar_extension	lumbar_bending	lumbar_rotation
      5.65000000	      3.66002682	      7.64682256	     -6.51790484	     -0.50621639	      0.92527455	      0.16655564	     -1.13352948	    -12.73566218	      0.01627134	    -59.97026095	    -16.67257257	     -0.05564453	      0.00000000	     19.80331107	     10.22818259	     -8.41646639	    -28.62295216	     10.47726266	    -17.25685064	      0.00000000	    -27.12967237	    -12.84157914	      1.70142441
      5.66000000	      3.35163029	      8.12604297	     -6.47846750	     -0.49350766	      0.92642220	      0.16569044	      1.53031026	    -13.01811585	      0.72797168	    -62.57937591	    -15.56879605	     -0.11118632	      0.00000000	     19.06958068	     10.90802644	     -8.39482518	    -28.10169172	     11.09597915	    -17.14150910	      0.00000000	    -26.91039248	    -13.31715836	      1.16103880
      5.67000000	      3.13007033	      8.45112808	     -6.38972206	     -0.48083193	      0.92797361	      0.16469967	      3.97984891	    -13.13249977	      1.28459844	    -64.73222431	    -13.93339303	     -0.04061670	      0.00000000	     18.13934707	     11.48448733	     -8.19025562	    -27.44122934	     11.62928527	    -17.07144240	      0.00000000	    -26.80407257	    -13.58223487	      0.68495393
      5.68000000	      2.98471576	      8.61363740	     -6.25930634	     -0.46822481	      0.92991117	      0.16365494	      6.22740229	    -13.05430012	      1.72898989	    -66.43564759	    -12.00036970	      0.11960696	      0.00000000	     17.03667774	     11.92404071	     -7.85287813	    -26.66461906	     12.06453037	    -17.01110394	      0.00000000	    -26.81852515	    -13.63167056	      0.12349786
      5.69000000	      2.88931036	      8.66262718	     -6.07802810	     -0.45569398	      0.93208416	      0.16254175	      8.30951004	    -12.86408308	      1.98190710	    -67.71185778	     -9.94648579	      0.10525897	      0.00000000	     15.81586419	     12.26621758	     -7.39261088	    -25.81125301	     12.45334406	    -16.90624673	      0.00000000	    -26.91311875	    -13.53009567	     -0.43634249
      5.70000000	      2.72831533	      8.55398748	     -5.87937589	     -0.44320795	      0.93427796	      0.16135050	     10.35153579	    -12.48857071	      2.13663366	    -68.58406153	     -7.76694528	      0.04155984	      0.00000000	     14.61172713	     12.44228352	     -6.90817396	    -24.88363360	     12.74757251	    -17.00007471	      0.00000000	    -26.91247268	    -13.21192202	     -0.90614423
      5.71000000	      2.58280455	      8.34632753	     -5.64138224	     -0.43075813	      0.93659248	      0.16024288	     12.24870920	    -11.99438098	      2.13891705	    -69.03693230	     -5.63913168	     -0.28219636	      0.00000000	     13.34500699	     12.50633564	     -6.30333344	    -23.91204514	     12.97964744	    -17.00710752	      0.00000000	    -26.92693150	    -12.80197500	     -1.31492207
      5.72000000	      2.40018381	      8.06521928	     -5.35824251	     -0.41837108	      0.93880572	      0.15904551	     14.08258662	    -11.44002694	      1.99475333	    -69.12685731	     -3.55877412	     -0.73112503	      0.00000000	     12.10197101	     12.48576864	     -5.69871108	    -22.90963926	     13.17987727	    -17.12502892	      0.00000000	    -26.89909115	    -12.26335802	     -1.79077051
      5.73000000	      2.19323056	      7.73530016	     -5.01681482	     -0.40601737	      0.94096848	      0.15790287	     15.81471806	    -10.84892964	      1.68737398	    -68.82867129	     -1.55380061	     -1.35971586	      0.00000000	     10.87103935	     12.39197368	     -5.03898108	    -21.89291186	     13.28379674	    -17.22843206	      0.00000000	    -26.83757958	    -11.67542402	     -2.24462999
